<?xml version="1.0" standalone="no"?>
<!DOCTYPE svg PUBLIC "-//W3C//DTD SVG 20010904//EN"
 "http://www.w3.org/TR/2001/REC-SVG-20010904/DTD/svg10.dtd">
<svg version="1.0" xmlns="http://www.w3.org/2000/svg"
 width="402.000000pt" height="402.000000pt" viewBox="0 0 402.000000 402.000000"
 preserveAspectRatio="xMidYMid meet">
<metadata>
Created by potrace 1.11, written by Peter Selinger 2001-2013
</metadata>
<g transform="translate(0.000000,402.000000) scale(0.100000,-0.100000)"
fill="#000000" stroke="none">
<path d="M3910 3045 c-48 -57 -522 -416 -790 -597 -234 -158 -758 -488 -776
-488 -1 0 -37 -20 -78 -45 -42 -25 -78 -45 -81 -45 -2 0 -30 -16 -63 -35 -191
-112 -690 -362 -966 -484 -351 -156 -593 -247 -971 -365 -47 -15 -70 -26 -55
-26 27 -2 3778 -2 3795 -1 11 1 15 2085 4 2095 -3 4 -12 -1 -19 -9z"/>
</g>
</svg>
