<?xml version="1.0" encoding="utf-8"?>
<!-- Generator: Adobe Illustrator 24.2.3, SVG Export Plug-In . SVG Version: 6.00 Build 0)  -->
<svg version="1.1" id="Layer_1" xmlns="http://www.w3.org/2000/svg" xmlns:xlink="http://www.w3.org/1999/xlink" x="0px" y="0px"
	 viewBox="0 0 1812 400" style="enable-background:new 0 0 1812 400;" xml:space="preserve">
<style type="text/css">
	.st0{fill-rule:evenodd;clip-rule:evenodd;fill:#282828;}
	.st1{fill:#A0C8FF;}
	.st2{fill:#005AD6;}
	.st3{fill:#003F96;}
	.st4{fill-rule:evenodd;clip-rule:evenodd;fill:#F3F6FA;}
	.st5{fill:#2979E8;}
	.st6{fill:#F3F6FA;}
</style>
<path class="st0" d="M4680.1,336V205.3h99.8v-23.7v-26.4h-99.8V69.1h130.4V18.9H4624V336h26.1H4680.1z M4862,84.9
	c17.9,0,31.9-14,31.9-32.1c0-18.5-14-32.1-31.9-32.1c-17.4,0-32.3,13.6-32.3,32.1C4829.7,70.9,4844.6,84.9,4862,84.9z M4984.1,223.7
	V336h-53.4V121.1h53.4v34.1c11-26.7,44.6-38.7,66.7-38.7c55.2,0,86.1,36.4,86.1,99V336h-53.4V220.5c0-34.1-20.7-51.5-44.6-51.5
	C5014.5,169,4984.1,182.3,4984.1,223.7z M5435,341.1c21.6,0,55.7-12,66.7-38.7V336h53.4V121.1h-53.4v112.3
	c0,41.9-30.4,55.2-54.8,55.2c-23.9,0-44.6-17.5-44.6-52V121.1h-53.4v120.6C5348.9,304.3,5379.8,341.1,5435,341.1z M5773.6,307
	c-14.7,23-45.1,33.6-71.3,33.6c-56.6,0-105.9-43.7-105.9-112.3c0-69,48.8-111.8,105.4-111.8c27.2,0,57.1,10.6,71.8,33.1v-28.5h53.4
	V336h-53.4V307z M5706.7,290.5c-33.1,0-60.3-26.7-60.3-62.6c0-35.9,27.2-61.7,60.3-61.7c30.8,0,62.1,23.9,62.1,61.7
	C5768.8,265.6,5739.4,290.5,5706.7,290.5z M5924,21.6l0,315.4h-53.4l0-301.1L5924,21.6z M4889,336V121h-53.4v215H4889z
	 M5306.9,337.8c-7.8,1.8-19.3,2.8-27.6,2.8c-49.7,0-82.8-30.4-82.8-87.4v-83.4h-42.8V121h42.8V67.1l51.5-13.8V121h58.9v48.8h-58.9
	v82.4c0,28.5,17.5,40,42.3,40c5.5,0,11.5-0.5,16.6-1.8V337.8z"/>
<g>
	<circle class="st1" cx="8532" cy="192" r="134"/>
	<path class="st2" d="M8532,192h-250v250C8420.1,442,8532,330,8532,192z"/>
	<path class="st3" d="M8496.2,321.1c22.8-37.7,35.9-81.9,35.9-129.1h-134C8398.1,253.5,8439.6,305.4,8496.2,321.1z"/>
</g>
<g>
	<path class="st0" d="M568.1,356V225.3h99.8v-23.7v-26.4h-99.8V89.1h130.4V38.9H512V356h26.1H568.1z M750,104.9
		c17.9,0,31.9-14,31.9-32.1c0-18.5-14-32.1-31.9-32.1c-17.4,0-32.3,13.6-32.3,32.1C717.7,90.9,732.5,104.9,750,104.9z M872.1,243.7
		V356h-53.4V141.1h53.4v34.1c11-26.7,44.6-38.7,66.7-38.7c55.2,0,86.1,36.4,86.1,99V356h-53.4V240.5c0-34.1-20.7-51.5-44.6-51.5
		C902.5,189,872.1,202.3,872.1,243.7z M1323,361.1c21.6,0,55.7-12,66.7-38.7V356h53.4V141.1h-53.4v112.3c0,41.9-30.4,55.2-54.8,55.2
		c-23.9,0-44.6-17.5-44.6-52V141.1h-53.4v120.6C1236.9,324.3,1267.7,361.1,1323,361.1z M1661.6,327c-14.7,23-45.1,33.6-71.3,33.6
		c-56.6,0-105.9-43.7-105.9-112.3c0-69,48.8-111.8,105.4-111.8c27.2,0,57.1,10.6,71.8,33.1v-28.5h53.4V356h-53.4V327z M1594.7,310.5
		c-33.1,0-60.3-26.7-60.3-62.6c0-35.9,27.2-61.7,60.3-61.7c30.8,0,62.1,23.9,62.1,61.7C1656.8,285.6,1627.4,310.5,1594.7,310.5z
		 M1812,41.6l0,315.4h-53.4l0-301.1L1812,41.6z M777,356V141h-53.4v215H777z M1194.8,357.8c-7.8,1.8-19.3,2.8-27.6,2.8
		c-49.7,0-82.8-30.4-82.8-87.4v-83.4h-42.8V141h42.8V87.1l51.5-13.8V141h58.9v48.8h-58.9v82.4c0,28.5,17.5,40,42.3,40
		c5.5,0,11.5-0.5,16.6-1.8V357.8z"/>
	<g>
		<circle class="st1" cx="250" cy="142" r="134"/>
		<path class="st2" d="M250,142H0v250C138.1,392,250,280,250,142z"/>
		<path class="st3" d="M214.2,271.1C236.9,233.4,250,189.2,250,142h-134C116.1,203.5,157.6,255.4,214.2,271.1z"/>
	</g>
</g>
<g>
	<path class="st4" d="M2880.1,356V225.3h99.8v-23.7v-26.4h-99.8V89.1h130.4V38.9H2824V356h26.1H2880.1z M3062,104.9
		c17.9,0,31.9-14,31.9-32.1c0-18.5-14-32.1-31.9-32.1c-17.4,0-32.3,13.6-32.3,32.1C3029.7,90.9,3044.5,104.9,3062,104.9z
		 M3184.1,243.7V356h-53.4V141.1h53.4v34.1c11-26.7,44.6-38.7,66.7-38.7c55.2,0,86.1,36.4,86.1,99V356h-53.4V240.5
		c0-34.1-20.7-51.5-44.6-51.5C3214.5,189,3184.1,202.3,3184.1,243.7z M3635,361.1c21.6,0,55.7-12,66.7-38.7V356h53.4V141.1h-53.4
		v112.3c0,41.9-30.4,55.2-54.8,55.2c-23.9,0-44.6-17.5-44.6-52V141.1h-53.4v120.6C3548.9,324.3,3579.7,361.1,3635,361.1z
		 M3973.6,327c-14.7,23-45.1,33.6-71.3,33.6c-56.6,0-105.9-43.7-105.9-112.3c0-69,48.8-111.8,105.4-111.8
		c27.2,0,57.1,10.6,71.8,33.1v-28.5h53.4V356h-53.4V327z M3906.7,310.5c-33.1,0-60.3-26.7-60.3-62.6c0-35.9,27.2-61.7,60.3-61.7
		c30.8,0,62.1,23.9,62.1,61.7C3968.8,285.6,3939.4,310.5,3906.7,310.5z M4124,41.6l0,315.4h-53.4l0-301.1L4124,41.6z M3089,356V141
		h-53.4v215H3089z M3506.8,357.8c-7.8,1.8-19.3,2.8-27.6,2.8c-49.7,0-82.8-30.4-82.8-87.4v-83.4h-42.8V141h42.8V87.1l51.5-13.8
		l0,67.7h58.9v48.8h-58.9v82.4c0,28.5,17.5,40,42.3,40c5.5,0,11.5-0.5,16.6-1.8V357.8z"/>
	<g>
		<circle class="st1" cx="2562" cy="142" r="134"/>
		<path class="st5" d="M2562,142h-250v250C2450.1,392,2562,280,2562,142z"/>
		<path class="st6" d="M2526.2,271.1c22.8-37.7,35.9-81.9,35.9-129.1h-134C2428.1,203.5,2469.6,255.4,2526.2,271.1z"/>
	</g>
</g>
<path class="st4" d="M6480.1,336V205.3h99.8v-23.7v-26.4h-99.8V69.1h130.4V18.9H6424V336h26.1H6480.1z M6662,84.9
	c17.9,0,31.9-14,31.9-32.1c0-18.5-14-32.1-31.9-32.1c-17.4,0-32.3,13.6-32.3,32.1C6629.7,70.9,6644.6,84.9,6662,84.9z M6784.1,223.7
	V336h-53.4V121.1h53.4v34.1c11-26.7,44.6-38.7,66.7-38.7c55.2,0,86.1,36.4,86.1,99V336h-53.4V220.5c0-34.1-20.7-51.5-44.6-51.5
	C6814.5,169,6784.1,182.3,6784.1,223.7z M7235,341.1c21.6,0,55.7-12,66.7-38.7V336h53.4V121.1h-53.4v112.3
	c0,41.9-30.4,55.2-54.8,55.2c-23.9,0-44.6-17.5-44.6-52V121.1h-53.4v120.6C7148.9,304.3,7179.8,341.1,7235,341.1z M7573.6,307
	c-14.7,23-45.1,33.6-71.3,33.6c-56.6,0-105.9-43.7-105.9-112.3c0-69,48.8-111.8,105.4-111.8c27.2,0,57.1,10.6,71.8,33.1v-28.5h53.4
	V336h-53.4V307z M7506.7,290.5c-33.1,0-60.3-26.7-60.3-62.6c0-35.9,27.2-61.7,60.3-61.7c30.8,0,62.1,23.9,62.1,61.7
	C7568.8,265.6,7539.4,290.5,7506.7,290.5z M7724,21.6l0,315.4h-53.4l0-301.1L7724,21.6z M6689,336V121h-53.4v215H6689z
	 M7106.9,337.8c-7.8,1.8-19.3,2.8-27.6,2.8c-49.7,0-82.8-30.4-82.8-87.4v-83.4h-42.8V121h42.8V67.1l51.5-13.8V121h58.9v48.8h-58.9
	v82.4c0,28.5,17.5,40,42.3,40c5.5,0,11.5-0.5,16.6-1.8V337.8z"/>
<g>
	<circle class="st1" cx="9532" cy="192" r="134"/>
	<path class="st5" d="M9532,192h-250v250C9420.1,442,9532,330,9532,192z"/>
	<path class="st6" d="M9496.2,321.1c22.8-37.7,35.9-81.9,35.9-129.1h-134C9398.1,253.5,9439.6,305.4,9496.2,321.1z"/>
</g>
</svg>
